<?xml version="1.0" standalone="no"?>
<!DOCTYPE svg PUBLIC "-//W3C//DTD SVG 20010904//EN"
 "http://www.w3.org/TR/2001/REC-SVG-20010904/DTD/svg10.dtd">
<svg version="1.0" xmlns="http://www.w3.org/2000/svg"
 width="700.000000pt" height="700.000000pt" viewBox="0 0 700.000000 700.000000"
 preserveAspectRatio="xMidYMid meet">
<metadata>
Created by potrace 1.11, written by Peter Selinger 2001-2013
</metadata>
<g transform="translate(0.000000,700.000000) scale(0.100000,-0.100000)"
fill="#000000" stroke="none">
<path d="M314 6150 c-104 -15 -192 -70 -249 -156 -70 -104 -65 79 -65 -2494 0
-2573 -5 -2390 65 -2494 42 -63 91 -102 169 -135 l61 -26 3205 0 3205 0 61 26
c78 33 127 72 169 135 70 104 65 -79 65 2494 0 2573 5 2390 -65 2494 -42 63
-91 102 -169 135 l-61 26 -3170 1 c-1744 1 -3193 -2 -3221 -6z m1623 -362 c-3
-8 -6 -5 -6 6 -1 11 2 17 5 13 3 -3 4 -12 1 -19z m-269 -115 c-21 -2 -55 -2
-75 0 -21 2 -4 4 37 4 41 0 58 -2 38 -4z m480 0 c-21 -2 -55 -2 -75 0 -21 2
-4 4 37 4 41 0 58 -2 38 -4z m2690 0 c-399 -2 -1056 -2 -1460 0 -403 1 -76 2
727 2 803 0 1133 -1 733 -2z m1289 0 c-20 -2 -52 -2 -70 0 -17 2 0 4 38 4 39
0 53 -2 32 -4z m491 0 c-21 -2 -55 -2 -75 0 -21 2 -4 4 37 4 41 0 58 -2 38 -4z
m142 -2729 c0 -1929 4 -1798 -58 -1841 -26 -17 -102 -18 -1614 -21 l-1588 -2
0 1810 0 1810 1630 0 1630 0 0 -1756z m-3560 1619 c41 -24 54 -56 51 -122 0
-12 -16 -38 -35 -57 l-34 -34 -465 0 -465 0 -31 26 c-57 48 -58 125 -1 177
l30 27 461 0 c413 0 464 -2 489 -17z m-11 -476 c79 -40 86 -154 12 -204 -24
-16 -65 -18 -441 -21 -228 -2 -439 0 -467 3 -120 15 -160 148 -64 212 l34 23
451 0 c338 0 457 -3 475 -13z m12 -970 c74 -50 67 -164 -12 -204 -19 -10 -249
-13 -1017 -13 -868 0 -997 2 -1022 15 -88 46 -72 186 24 214 18 6 456 9 1016
8 921 -2 987 -3 1011 -20z m15 -501 c19 -19 35 -45 35 -57 3 -66 -10 -98 -51
-122 -25 -15 -76 -17 -488 -17 l-460 0 -31 26 c-57 48 -58 125 -1 177 l30 27
466 0 466 0 34 -34z m-15 -469 c38 -25 60 -77 52 -120 -7 -37 -54 -83 -94 -91
-17 -3 -217 -6 -444 -6 -227 0 -427 3 -444 6 -18 4 -45 20 -62 36 -24 24 -29
38 -29 77 0 27 7 56 16 70 35 49 48 50 525 51 l446 0 34 -23z"/>
<path d="M3955 4343 c-36 -10 -68 -37 -81 -70 -19 -44 -19 -1119 -1 -1173 7
-19 27 -44 46 -57 l34 -23 452 0 452 0 34 23 c19 13 39 38 46 57 9 25 12 187
12 588 1 602 1 599 -55 637 -28 19 -50 20 -474 22 -245 0 -454 -1 -465 -4z"/>
<path d="M5411 4343 c-14 -3 -36 -12 -49 -21 -52 -34 -52 -39 -52 -637 0 -594
0 -596 50 -640 21 -19 38 -20 478 -23 330 -2 464 1 484 9 16 6 39 26 51 43
l22 31 0 576 c0 628 2 608 -58 645 -30 18 -57 19 -467 20 -239 1 -446 0 -459
-3z"/>
<path d="M3958 2652 c-36 -4 -84 -52 -92 -93 -3 -17 -6 -249 -6 -516 0 -525 0
-528 55 -571 l28 -22 1174 0 c1277 0 1219 -3 1258 56 19 28 20 50 20 544 0
476 -1 518 -18 543 -39 60 42 56 -1227 59 -641 2 -1177 2 -1192 0z"/>
</g>
</svg>
